:FULLY-SPECIFIED
:FORCE-ALL-JOINTS-BE-3DOF
:DEGREES
408
root 4.58616 16.172 -11.1739 0.75879 -41.0199 -0.478278
lfemur -27.2911 9.221 -10.4997
ltibia 48.9217 0 0
lfoot -14.4876 13.09 0
ltoes 3.44482 0 0
rfemur -47.4598 -24.9803 26.6726
rtibia 86.1989 0 0
rfoot 2.5578 0.89833 0
rtoes 35.4371 0 0
lowerback 6.3208 4.71693 -0.939009
upperback 1.94667 6.14448 -2.38069
thorax -1.34924 3.06203 -2.3709
lowerneck -6.20571 3.12545 7.79129
upperneck 3.6231 3.55163 -0.748291
head 2.41846 1.86164 -1.45496
lclavicle -1.93682e-014 1.62895e-014 0
lhumerus -45.3453 -17.2951 94.0632
lradius 50.8257 0 0
lwrist 18.8601 0 0
lhand -20.8955 1.74134 0
lfingers 7.12502 0 0
lthumb 5.47592 31.663 0
rclavicle -1.93682e-014 1.62895e-014 0
rhumerus -44.937 10.0934 -91.167
rradius 65.69 0 0
rwrist 7.90785 0 0
rhand -19.9673 -16.6469 0
rfingers 7.12502 0 0
rthumb 6.37084 -766.524 0
409
root 4.53058 16.1588 -11.0688 0.664947 -40.7844 -0.516972
lfemur -27.2955 9.13075 -10.488
ltibia 48.5394 0 0
lfoot -14.5861 13.2606 0
ltoes 3.20061 0 0
rfemur -47.4187 -25.1499 26.4198
rtibia 86.4335 0 0
rfoot 2.88138 0.695361 0
rtoes 34.9424 0 0
lowerback 6.31622 4.74182 -0.936569
upperback 1.9212 6.17747 -2.40325
thorax -1.37076 3.07789 -2.39798
lowerneck -6.17673 3.14427 7.84629
upperneck 3.66226 3.57409 -0.789259
head 2.42773 1.87283 -1.47584
lclavicle -1.95448e-014 1.67896e-014 0
lhumerus -45.394 -17.3099 94.1188
lradius 50.7297 0 0
lwrist 18.6646 0 0
lhand -20.9394 1.61433 0
lfingers 7.12502 0 0
lthumb 5.43314 31.5313 0
rclavicle -1.95448e-014 1.67896e-014 0
rhumerus -45.07 9.95801 -91.0382
rradius 65.7405 0 0
rwrist 7.92895 0 0
rhand -20.2538 -16.6526 0
rfingers 7.12502 0 0
rthumb 6.09441 -766.54 0
410
root 4.4739 16.1459 -10.967 0.589147 -40.465 -0.586319
lfemur -27.3701 9.08219 -10.4744
ltibia 48.2391 0 0
lfoot -14.6797 13.3746 0
ltoes 2.9918 0 0
rfemur -47.2904 -25.2702 26.1762
rtibia 86.5336 0 0
rfoot 3.14041 0.481462 0
rtoes 34.3172 0 0
lowerback 6.30696 4.75757 -0.917004
upperback 1.89508 6.19928 -2.41368
thorax -1.39068 3.08822 -2.42124
lowerneck -6.15422 3.15499 7.88828
upperneck 3.69231 3.58644 -0.825843
head 2.43428 1.87889 -1.49362
lclavicle -1.97477e-014 1.71927e-014 0
lhumerus -45.4269 -17.3266 94.1765
lradius 50.6479 0 0
lwrist 18.4612 0 0
lhand -21.0066 1.4752 0
lfingers 7.12502 0 0
lthumb 5.36804 31.3896 0
rclavicle -1.97477e-014 1.71927e-014 0
rhumerus -45.2084 9.81119 -90.925
rradius 65.7786 0 0
rwrist 7.95862 0 0
rhand -20.514 -16.6691 0
rfingers 7.12502 0 0
rthumb 5.84336 -766.566 0
411
root 4.41606 16.1333 -10.8688 0.532276 -40.0589 -0.687973
lfemur -27.5188 9.07735 -10.4588
ltibia 48.0255 0 0
lfoot -14.768 13.4286 0
ltoes 2.82089 0 0
rfemur -47.0705 -25.3387 25.9429
rtibia 86.4927 0 0
rfoot 3.33111 0.256629 0
rtoes 33.5552 0 0
lowerback 6.29278 4.76377 -0.879405
upperback 1.86828 6.20945 -2.41136
thorax -1.40892 3.09276 -2.4405
lowerneck -6.13857 3.15743 7.91665
upperneck 3.71289 3.58844 -0.857897
head 2.43799 1.87968 -1.50816
lclavicle -1.99779e-014 1.74931e-014 0
lhumerus -45.4433 -17.3447 94.236
lradius 50.5812 0 0
lwrist 18.2497 0 0
lhand -21.0987 1.32331 0
lfingers 7.12502 0 0
lthumb 5.27901 31.2376 0
rclavicle -1.99779e-014 1.74931e-014 0
rhumerus -45.3529 9.65244 -90.8291
rradius 65.8035 0 0
rwrist 7.99748 0 0
rhand -20.7459 -16.6968 0
rfingers 7.12502 0 0
rthumb 5.61965 -766.602 0
412
root 4.35533 16.1201 -10.7742 0.493613 -39.5547 -0.825911
lfemur -27.7483 9.12979 -10.4376
ltibia 47.8928 0 0
lfoot -14.8537 13.4281 0
ltoes 2.6707 0 0
rfemur -46.7415 -25.3589 25.7065
rtibia 86.2936 0 0
rfoot 3.45736 0.00310168 0
rtoes 32.6282 0 0
lowerback 6.27312 4.76002 -0.82165
upperback 1.84056 6.20756 -2.39605
thorax -1.42535 3.09129 -2.45667
lowerneck -6.12806 3.15047 7.93277
upperneck 3.721 3.57866 -0.885167
head 2.43761 1.87442 -1.51948
lclavicle -2.02502e-014 1.77062e-014 0
lhumerus -45.4433 -17.3705 94.3003
lradius 50.5283 0 0
lwrist 18.0229 0 0
lhand -21.2195 1.15448 0
lfingers 7.12502 0 0
lthumb 5.16239 31.0707 0
rclavicle -2.02502e-014 1.77062e-014 0
rhumerus -45.5001 9.4708 -90.7362
rradius 65.8165 0 0
rwrist 8.03907 0 0
rhand -20.9665 -16.7402 0
rfingers 7.12502 0 0
rthumb 5.40678 -766.653 0
413
root 4.29023 16.1057 -10.6831 0.471391 -38.9453 -1.00162
lfemur -28.0601 9.24922 -10.4076
ltibia 47.8296 0 0
lfoot -14.9398 13.382 0
ltoes 2.52259 0 0
rfemur -46.2935 -25.3371 25.4531
rtibia 85.929 0 0
rfoot 3.52743 -0.295102 0
rtoes 31.5184 0 0
lowerback 6.24774 4.74646 -0.74298
upperback 1.81175 6.19386 -2.36834
thorax -1.43994 3.08388 -2.4708
lowerneck -6.12061 3.13336 7.93871
upperneck 3.71439 3.5561 -0.907612
head 2.43212 1.86256 -1.52775
lclavicle -2.05767e-014 1.7853e-014 0
lhumerus -45.4283 -17.4103 94.3722
lradius 50.4874 0 0
lwrist 17.7745 0 0
lhand -21.3702 0.96577 0
lfingers 7.12502 0 0
lthumb 5.01693 30.8853 0
rclavicle -2.05767e-014 1.7853e-014 0
rhumerus -45.646 9.25697 -90.6319
rradius 65.8201 0 0
rwrist 8.07682 0 0
rhand -21.1938 -16.803 0
rfingers 7.12502 0 0
rthumb 5.18742 -766.724 0
414
root 4.22104 16.0901 -10.5955 0.464922 -38.2348 -1.21302
lfemur -28.4495 9.43177 -10.3696
ltibia 47.8324 0 0
lfoot -15.0264 13.2923 0
ltoes 2.37691 0 0
rfemur -45.7328 -25.2749 25.1838
rtibia 85.4077 0 0
rfoot 3.54415 -0.635315 0
rtoes 30.2354 0 0
lowerback 6.21694 4.72352 -0.644529
upperback 1.78191 6.16884 -2.32882
thorax -1.45279 3.07079 -2.48293
lowerneck -6.11613 3.10644 7.93481
upperneck 3.69383 3.52119 -0.925402
head 2.4218 1.8443 -1.53309
lclavicle -2.09541e-014 1.7936e-014 0
lhumerus -45.3992 -17.4634 94.4518
lradius 50.4579 0 0
lwrist 17.5056 0 0
lhand -21.5488 0.758372 0
lfingers 7.12502 0 0
lthumb 4.84462 30.6826 0
rclavicle -2.09541e-014 1.7936e-014 0
rhumerus -45.7907 9.01303 -90.5169
rradius 65.8148 0 0
rwrist 8.11114 0 0
rhand -21.4271 -16.8842 0
rfingers 7.12502 0 0
rthumb 4.96231 -766.812 0
415
root 4.14809 16.0733 -10.5112 0.473519 -37.4275 -1.45802
lfemur -28.9123 9.67363 -10.3242
ltibia 47.8979 0 0
lfoot -15.1134 13.161 0
ltoes 2.23396 0 0
rfemur -45.0661 -25.174 24.8993
rtibia 84.738 0 0
rfoot 3.51035 -1.01487 0
rtoes 28.7889 0 0
lowerback 6.18098 4.69161 -0.527434
upperback 1.7511 6.133 -2.27811
thorax -1.46397 3.05227 -2.49306
lowerneck -6.11451 3.07005 7.92143
upperneck 3.66011 3.47434 -0.938707
head 2.40694 1.81989 -1.53562
lclavicle -2.13792e-014 1.7958e-014 0
lhumerus -45.3567 -17.5294 94.5387
lradius 50.4394 0 0
lwrist 17.2175 0 0
lhand -21.7532 0.533497 0
lfingers 7.12502 0 0
lthumb 4.64747 30.4637 0
rclavicle -2.13792e-014 1.7958e-014 0
rhumerus -45.9339 8.74105 -90.392
rradius 65.8014 0 0
rwrist 8.14246 0 0
rhand -21.6655 -16.9827 0
rfingers 7.12502 0 0
rthumb 4.73215 -766.917 0
416
root 4.07166 16.0556 -10.4301 0.496493 -36.5273 -1.73454
lfemur -29.444 9.97094 -10.272
ltibia 48.0228 0 0
lfoot -15.2008 12.9901 0
ltoes 2.09408 0 0
rfemur -44.2999 -25.0362 24.6007
rtibia 83.9285 0 0
rfoot 3.42885 -1.4311 0
rtoes 27.1885 0 0
lowerback 6.14016 4.65115 -0.392829
upperback 1.71939 6.08684 -2.21679
thorax -1.47357 3.02856 -2.50123
lowerneck -6.11565 3.02453 7.89893
upperneck 3.614 3.41599 -0.947698
head 2.38781 1.78954 -1.53546
lclavicle -2.18491e-014 1.79218e-014 0
lhumerus -45.3017 -17.6077 94.6328
lradius 50.4315 0 0
lwrist 16.9112 0 0
lhand -21.9813 0.292349 0
lfingers 7.12502 0 0
lthumb 4.42747 30.2297 0
rclavicle -2.18491e-014 1.79218e-014 0
rhumerus -46.0757 8.4431 -90.2579
rradius 65.7805 0 0
rwrist 8.17118 0 0
rhand -21.9085 -17.0977 0
rfingers 7.12502 0 0
rthumb 4.49765 -767.039 0
417
root 3.99208 16.0369 -10.3521 0.533157 -35.5384 -2.04049
lfemur -30.0401 10.3199 -10.2138
ltibia 48.2035 0 0
lfoot -15.2886 12.7817 0
ltoes 1.95758 0 0
rfemur -43.4407 -24.8629 24.2889
rtibia 82.9879 0 0
rfoot 3.30249 -1.88134 0
rtoes 25.4439 0 0
lowerback 6.09475 4.60257 -0.241851
upperback 1.68683 6.03083 -2.14548
thorax -1.48168 2.99992 -2.50747
lowerneck -6.11944 2.97022 7.86766
upperneck 3.55627 3.34656 -0.952544
head 2.36469 1.75348 -1.53271
lclavicle -2.23604e-014 1.78301e-014 0
lhumerus -45.2349 -17.698 94.7339
lradius 50.4337 0 0
lwrist 16.5879 0 0
lhand -22.231 0.0361337 0
lfingers 7.12502 0 0
lthumb 4.18662 29.9816 0
rclavicle -2.23604e-014 1.78301e-014 0
rhumerus -46.2158 8.12123 -90.1156
rradius 65.7527 0 0
rwrist 8.19773 0 0
rhand -22.1552 -17.2281 0
rfingers 7.12502 0 0
rthumb 4.25954 -767.176 0
418
root 3.90963 16.0174 -10.2769 0.582823 -34.465 -2.3738
lfemur -30.6962 10.7165 -10.1502
ltibia 48.4367 0 0
lfoot -15.3767 12.5378 0
ltoes 1.8248 0 0
rfemur -42.4952 -24.656 23.9648
rtibia 81.9245 0 0
rfoot 3.13409 -2.36293 0
rtoes 23.5648 0 0
lowerback 6.04505 4.54628 -0.0756348
upperback 1.6535 5.96549 -2.06477
thorax -1.48839 2.96659 -2.5118
lowerneck -6.12579 2.90746 7.82799
upperneck 3.48771 3.26648 -0.953416
head 2.33787 1.71192 -1.52749
lclavicle -2.29101e-014 1.76855e-014 0
lhumerus -45.1573 -17.7995 94.8419
lradius 50.4455 0 0
lwrist 16.2488 0 0
lhand -22.5003 -0.233943 0
lfingers 7.12502 0 0
lthumb 3.92692 29.7206 0
rclavicle -2.29101e-014 1.76855e-014 0
rhumerus -46.3541 7.77753 -89.9656
rradius 65.7185 0 0
rwrist 8.22251 0 0
rhand -22.4048 -17.373 0
rfingers 7.12502 0 0
rthumb 4.01853 -767.327 0
419
root 3.82464 15.9972 -10.2045 0.644803 -33.3111 -2.73237
lfemur -31.4078 11.1572 -10.0818
ltibia 48.719 0 0
lfoot -15.4653 12.2605 0
ltoes 1.69606 0 0
rfemur -41.4698 -24.4171 23.6293
rtibia 80.7469 0 0
rfoot 2.92647 -2.87319 0
rtoes 21.5608 0 0
lowerback 5.99133 4.48271 0.104684
upperback 1.61944 5.89131 -1.97526
thorax -1.49378 2.92884 -2.51425
lowerneck -6.13458 2.83659 7.78028
upperneck 3.40909 3.17616 -0.950484
head 2.30763 1.66511 -1.51993
lclavicle -2.3495e-014 1.74909e-014 0
lhumerus -45.0696 -17.9118 94.9567
lradius 50.4664 0 0
lwrist 15.895 0 0
lhand -22.7871 -0.516675 0
lfingers 7.12502 0 0
lthumb 3.65037 29.4476 0
rclavicle -2.3495e-014 1.74909e-014 0
rhumerus -46.4907 7.41406 -89.8089
rradius 65.6788 0 0
rwrist 8.24596 0 0
rhand -22.6568 -17.5313 0
rfingers 7.12502 0 0
rthumb 3.77534 -767.491 0
